<svg width="100" height="100" viewBox="0 0 100 100" fill="none" xmlns="http://www.w3.org/2000/svg">
<rect width="100" height="100" rx="50" fill="#F9F9F9"/>
<path d="M56.5114 79.0909L49.0682 62.8977L51.7955 61.7614L60.4318 79.0909H56.5114ZM51 62.8977L43.5568 79.0909H39.6364L48.2727 61.7614L51 62.8977ZM48.2727 65.2841L48.2727 50H51.7955L51.7955 65.2841H48.2727ZM41.9091 64.4886V61.9318H58.1591V64.4886H41.9091ZM41.9091 58.8636V56.3068H58.1591L58.1591 58.8636H41.9091Z" fill="#4F71FA"/>
<path d="M51.25 17.2727V53.6364H48.9205V17.2727H51.25ZM61.9318 30H58.4091C58.2008 28.9867 57.8362 28.0966 57.3153 27.3295C56.804 26.5625 56.179 25.9186 55.4403 25.3977C54.7112 24.8674 53.9015 24.4697 53.0114 24.2045C52.1212 23.9394 51.1932 23.8068 50.2273 23.8068C48.4659 23.8068 46.8703 24.2519 45.4403 25.142C44.0199 26.0322 42.8883 27.3438 42.0455 29.0767C41.2121 30.8097 40.7955 32.9356 40.7955 35.4545C40.7955 37.9735 41.2121 40.0994 42.0455 41.8324C42.8883 43.5653 44.0199 44.8769 45.4403 45.767C46.8703 46.6572 48.4659 47.1023 50.2273 47.1023C51.1932 47.1023 52.1212 46.9697 53.0114 46.7045C53.9015 46.4394 54.7112 46.0464 55.4403 45.5256C56.179 44.9953 56.804 44.3466 57.3153 43.5795C57.8362 42.803 58.2008 41.9129 58.4091 40.9091H61.9318C61.6667 42.3958 61.1837 43.7263 60.483 44.9006C59.7822 46.0748 58.911 47.0739 57.8693 47.8977C56.8277 48.7121 55.6581 49.3324 54.3608 49.7585C53.0729 50.1847 51.6951 50.3977 50.2273 50.3977C47.7462 50.3977 45.5398 49.7917 43.608 48.5795C41.6761 47.3674 40.1563 45.6439 39.0483 43.4091C37.9403 41.1742 37.3864 38.5227 37.3864 35.4545C37.3864 32.3864 37.9403 29.7348 39.0483 27.5C40.1563 25.2652 41.6761 23.5417 43.608 22.3295C45.5398 21.1174 47.7462 20.5114 50.2273 20.5114C51.6951 20.5114 53.0729 20.7244 54.3608 21.1506C55.6581 21.5767 56.8277 22.2017 57.8693 23.0256C58.911 23.84 59.7822 24.8343 60.483 26.0085C61.1837 27.1733 61.6667 28.5038 61.9318 30Z" fill="#4F71FA"/>
</svg>
